<svg version="1.1" xmlns="http://www.w3.org/2000/svg" xmlns:xlink="http://www.w3.org/1999/xlink" width="404" height="327"><defs/><g><g transform="translate(-462,-62) scale(1,1)"><rect fill="#C0C0C0" stroke="none" x="495" y="79" width="136.92431640625" height="115" opacity="0.2"/></g><g transform="translate(-462,-62) scale(1,1)"><rect fill="#ffffff" stroke="none" x="488" y="72" width="136.92431640625" height="115"/></g><g transform="translate(-462,-62) scale(1,1)"><path fill="none" stroke="#000000" d="M 488 72 L 624.92431640625 72 L 624.92431640625 187 L 488 187 L 488 72 Z Z" stroke-miterlimit="10"/></g><g transform="translate(-462,-62) scale(1,1)"><path fill="none" stroke="#000000" d="M 488 97 L 624.92431640625 97" stroke-miterlimit="10"/></g><g transform="translate(-462,-62) scale(1,1)"><path fill="none" stroke="#000000" d="M 488 150 L 624.92431640625 150" stroke-miterlimit="10"/></g><g transform="translate(-462,-62) scale(1,1)"><g><path fill="none" stroke="none"/><text fill="#000000" stroke="none" font-family="Arial" font-size="13px" font-style="normal" font-weight="bold" text-decoration="none" x="528.63720703125" y="91.5">Personne</text></g></g><g transform="translate(-462,-62) scale(1,1)"><g><path fill="none" stroke="none"/><text fill="#000000" stroke="none" font-family="Arial" font-size="13px" font-style="normal" font-weight="normal" text-decoration="none" x="493" y="114.5">-nom: string</text></g></g><g transform="translate(-462,-62) scale(1,1)"><g><path fill="none" stroke="none"/><text fill="#000000" stroke="none" font-family="Arial" font-size="13px" font-style="normal" font-weight="normal" text-decoration="none" x="493" y="129.5">-date_naissance: date</text></g></g><g transform="translate(-462,-62) scale(1,1)"><g><path fill="none" stroke="none"/><text fill="#000000" stroke="none" font-family="Arial" font-size="13px" font-style="normal" font-weight="normal" text-decoration="none" x="493" y="144.5">-genre: string</text></g></g><g transform="translate(-462,-62) scale(1,1)"><g><path fill="none" stroke="none"/><text fill="#000000" stroke="none" font-family="Arial" font-size="13px" font-style="normal" font-weight="normal" text-decoration="none" x="493" y="167.5">+get_age(): string</text></g></g><g transform="translate(-462,-62) scale(1,1)"><g><path fill="none" stroke="none"/><text fill="#000000" stroke="none" font-family="Arial" font-size="13px" font-style="normal" font-weight="normal" text-decoration="none" x="493" y="182.5">+to_string(): string</text></g></g><g transform="translate(-462,-62) scale(1,1)"><rect fill="#C0C0C0" stroke="none" x="479" y="271" width="165.43798828125" height="115" opacity="0.2"/></g><g transform="translate(-462,-62) scale(1,1)"><rect fill="#ffffff" stroke="none" x="472" y="264" width="165.43798828125" height="115"/></g><g transform="translate(-462,-62) scale(1,1)"><path fill="none" stroke="#000000" d="M 472 264 L 637.43798828125 264 L 637.43798828125 379 L 472 379 L 472 264 Z Z" stroke-miterlimit="10"/></g><g transform="translate(-462,-62) scale(1,1)"><path fill="none" stroke="#000000" d="M 472 289 L 637.43798828125 289" stroke-miterlimit="10"/></g><g transform="translate(-462,-62) scale(1,1)"><path fill="none" stroke="#000000" d="M 472 342 L 637.43798828125 342" stroke-miterlimit="10"/></g><g transform="translate(-462,-62) scale(1,1)"><g><path fill="none" stroke="none"/><text fill="#000000" stroke="none" font-family="Arial" font-size="13px" font-style="normal" font-weight="bold" text-decoration="none" x="530.86767578125" y="283.5">Etudiant</text></g></g><g transform="translate(-462,-62) scale(1,1)"><g><path fill="none" stroke="none"/><text fill="#000000" stroke="none" font-family="Arial" font-size="13px" font-style="normal" font-weight="normal" text-decoration="none" x="477" y="306.5">-classe: string</text></g></g><g transform="translate(-462,-62) scale(1,1)"><g><path fill="none" stroke="none"/><text fill="#000000" stroke="none" font-family="Arial" font-size="13px" font-style="normal" font-weight="normal" text-decoration="none" x="477" y="321.5">-date_integration: date</text></g></g><g transform="translate(-462,-62) scale(1,1)"><g><path fill="none" stroke="none"/><text fill="#000000" stroke="none" font-family="Arial" font-size="13px" font-style="normal" font-weight="normal" text-decoration="none" x="477" y="336.5">-notes: array</text></g></g><g transform="translate(-462,-62) scale(1,1)"><g><path fill="none" stroke="none"/><text fill="#000000" stroke="none" font-family="Arial" font-size="13px" font-style="normal" font-weight="normal" text-decoration="none" x="477" y="359.5">+Calculer_moyenne(): float</text></g></g><g transform="translate(-462,-62) scale(1,1)"><path fill="none" stroke="#000000" d="M 555 263 L 555 188" stroke-miterlimit="10"/></g><g transform="translate(-462,-62) scale(1,1)"><path fill="#FFFFFF" stroke="none" d="M 563.419035512032 208.3253497152483 L 555 188 L 546.580964487968 208.3253497152483"/></g><g transform="translate(-462,-62) scale(1,1)"><path fill="none" stroke="#000000" d="M 563.419035512032 208.3253497152483 L 555 188 L 546.580964487968 208.3253497152483 L 563.419035512032 208.3253497152483" stroke-miterlimit="10"/></g><g transform="translate(-462,-62) scale(1,1)"><rect fill="#C0C0C0" stroke="none" x="711" y="271" width="152" height="80" opacity="0.2"/></g><g transform="translate(-462,-62) scale(1,1)"><rect fill="#ffffff" stroke="none" x="704" y="264" width="152" height="80"/></g><g transform="translate(-462,-62) scale(1,1)"><path fill="none" stroke="#000000" d="M 704 264 L 856 264 L 856 344 L 704 344 L 704 264 Z Z" stroke-miterlimit="10"/></g><g transform="translate(-462,-62) scale(1,1)"><path fill="none" stroke="#000000" d="M 704 289 L 856 289" stroke-miterlimit="10"/></g><g transform="translate(-462,-62) scale(1,1)"><path fill="none" stroke="#000000" d="M 704 312 L 856 312" stroke-miterlimit="10"/></g><g transform="translate(-462,-62) scale(1,1)"><g><path fill="none" stroke="none"/><text fill="#000000" stroke="none" font-family="Arial" font-size="13px" font-style="normal" font-weight="bold" text-decoration="none" x="757.95458984375" y="283.5">Laureat</text></g></g><g transform="translate(-462,-62) scale(1,1)"><g><path fill="none" stroke="none"/><text fill="#000000" stroke="none" font-family="Arial" font-size="13px" font-style="normal" font-weight="normal" text-decoration="none" x="709" y="306.5">-note_fin_etude: float</text></g></g><g transform="translate(-462,-62) scale(1,1)"><g><path fill="none" stroke="none"/><text fill="#000000" stroke="none" font-family="Arial" font-size="13px" font-style="normal" font-weight="normal" text-decoration="none" x="709" y="329.5">+Calculer_moyenne()</text></g></g><g transform="translate(-462,-62) scale(1,1)"><path fill="none" stroke="#000000" d="M 703 310 L 638 315" stroke-miterlimit="10"/></g><g transform="translate(-462,-62) scale(1,1)"><path fill="#FFFFFF" stroke="none" d="M 657.6197705552175 305.046879717364 L 638 315 L 658.9111916507358 321.83535395910116"/></g><g transform="translate(-462,-62) scale(1,1)"><path fill="none" stroke="#000000" d="M 657.6197705552175 305.046879717364 L 638 315 L 658.9111916507358 321.83535395910116 L 657.6197705552175 305.046879717364" stroke-miterlimit="10"/></g></g></svg>